<?xml version="1.0" encoding="utf-8"?>
<!-- Generator: Adobe Illustrator 24.1.0, SVG Export Plug-In . SVG Version: 6.00 Build 0)  -->
<svg version="1.1" id="Capa_1" xmlns="http://www.w3.org/2000/svg" xmlns:xlink="http://www.w3.org/1999/xlink" x="0px" y="0px"
	 viewBox="0 0 200 140.8" style="enable-background:new 0 0 200 140.8;" xml:space="preserve">
<style type="text/css">
	.st0{fill:#FFFFFF;}
	.st1{fill:#96D032;stroke:#211915;stroke-width:0.5;stroke-miterlimit:10;}
</style>
<g>
	<path class="st0" d="M112.47,134.98c-1.26,0-2.98-0.18-5.25-0.56c-3.74-0.7-8.79-1.14-15.04-1.31l-75.9,0
		c-3.5,0-6.3-0.83-8.33-2.45c-2.16-1.73-3.26-4.17-3.26-7.24c0-2.27,0.53-3.94,1.61-5.11c0.92-0.99,2.68-2.07,5.55-3.41
		c1.51-0.66,2.59-1.41,3.24-2.26c0.68-0.89,1.24-2.31,1.65-4.22c1.93-8.82,2.91-20.93,2.91-35.97c0-22.61-1.38-36.97-4.1-42.69
		c-0.56-1.11-1.04-1.54-1.27-1.7c-0.25-0.16-1.12-0.63-3.93-1.44c-4.29-1.28-6.55-4.29-6.55-8.72c0-2.35,0.71-4.47,2.11-6.31
		c1.41-1.85,3.28-3.09,5.57-3.68c2.55-0.59,7.12-0.87,14.02-0.87h46.04c9.21,0,16.01-0.19,20.2-0.57c4.12-0.37,8.19-1.15,12.11-2.3
		c1.46-0.42,2.61-0.62,3.52-0.62c3.77,0,7.09,1.97,9.87,5.84c4.17,5.74,6.28,12.75,6.28,20.84c0,4.29-0.96,7.77-2.85,10.35
		c-2.03,2.77-4.85,4.17-8.37,4.17c-2.39,0-4.34-0.54-5.79-1.59c-1.33-0.97-2.89-2.85-4.92-5.92c-2.4-3.65-5.32-6-8.95-7.21
		c-3.81-1.27-10.27-1.91-19.21-1.91c-7.99,0-10.21,1.7-10.83,2.71c-0.6,1.01-0.97,2.49-1.1,4.37c-0.15,2.15-0.22,7.79-0.22,16.77
		c0,4.3,0.92,5.01,0.96,5.04c0.21,0.15,1.6,0.92,8.23,0.92c1.95,0,3.37-0.36,4.11-1.04c0.52-0.48,1.21-1.63,1.52-4.34
		c0.44-3.65,0.9-6.12,1.4-7.55c0.57-1.64,1.62-3.07,3.1-4.26c1.57-1.34,3.48-2.05,5.64-2.05c3.1,0,5.75,1.44,7.87,4.29
		c1.45,2,2.61,5.26,3.54,9.97c0.89,4.49,1.34,9.24,1.34,14.12c0,9.68-1.54,17.77-4.59,24.04c-1.95,3.96-5.11,6.04-9.14,6.04
		c-2.69,0-4.64-0.8-5.81-2.37c-1.01-1.35-1.7-3.71-2.17-7.42C76.5,81.66,73.37,79,67.42,79c-2.88,0-3.56,1.17-3.78,1.55
		c-0.55,0.95-1.21,3.18-1.21,8.43c0,2.73,0.19,6.33,0.57,10.69c0.47,5.35,0.88,7.53,1.14,8.42c0.12,0.43,0.43,1.62,3.05,2.34
		c2.29,0.63,6.29,0.96,11.87,0.96c8.6,0,15.1-1.09,19.34-3.23c4.11-2.08,7.55-5.97,10.2-11.55c1.81-3.74,3.44-6.23,5-7.61
		c1.71-1.52,3.92-2.29,6.57-2.29c3.16,0,5.79,1.37,7.82,4.06c1.9,2.52,2.87,5.68,2.87,9.39c0,3.78-0.97,8.51-2.89,14.07
		c-1.9,5.5-4.26,10.46-7.02,14.74c-1.53,2.27-2.79,3.75-3.87,4.57C115.84,134.5,114.29,134.98,112.47,134.98z"/>
	<path class="st0" d="M165.37,67.16c-5.19,0-10.43-1.17-15.57-3.46c-6.04-2.7-10.88-6.89-14.38-12.47
		c-3.43-5.41-5.18-11.17-5.18-17.12c0-6.91,2.19-13.29,6.52-18.98c3.74-4.91,8.67-8.7,14.66-11.28c4.57-1.97,9.35-2.97,14.21-2.97
		c4.58,0,9.07,1.01,13.33,2.99c2.34,1.09,3.03,1.13,3.1,1.13c0.17,0,0.73-0.03,2.13-0.35c0.52-0.12,1.1-0.18,1.72-0.18
		c1.48,0,3.65,0.49,5.58,2.84c3.12,3.73,4.71,8.41,4.71,13.9c0,4.23-1.54,7.4-4.56,9.43c-1.67,1.1-3.54,1.65-5.58,1.65
		c-1.91,0-3.52-0.44-4.8-1.31c-1.22-0.83-2.33-2.18-3.38-4.12c-1.2-2.19-2.18-3.77-2.91-4.69c-0.67-0.85-1.52-1.65-2.51-2.35
		c-2.53-1.75-5.09-2.61-7.83-2.61c-2.43,0-4.3,0.83-5.69,2.54c-1.48,1.8-2.23,4.32-2.23,7.48c0,4.63,1.2,8.93,3.56,12.77
		c3.11,4.99,7.46,7.43,13.27,7.43c2.16,0,4.34-0.36,6.47-1.08c2.05-0.69,3.64-1.57,4.72-2.61c1.57-1.47,2.87-2.14,4.14-2.14
		c1.15,0,2.83,0.38,4.24,2.2c1.01,1.31,1.53,2.88,1.53,4.67c0,2-0.59,4.21-1.75,6.58c-1.15,2.35-2.58,4.24-4.24,5.62
		c-0.94,0.75-2.39,1.28-4.75,1.74c-0.67,0.12-1.89,0.47-4,1.47C175.25,66.04,170.37,67.16,165.37,67.16z"/>
	<path class="st0" d="M165.37,139.93c-5.19,0-10.43-1.17-15.57-3.46c-6.04-2.7-10.88-6.89-14.38-12.47
		c-3.43-5.41-5.18-11.17-5.18-17.12c0-6.91,2.19-13.29,6.52-18.98c3.74-4.91,8.67-8.7,14.66-11.28c4.57-1.97,9.35-2.97,14.21-2.97
		c4.59,0,9.07,1.01,13.33,2.99c2.34,1.09,3.03,1.13,3.1,1.13c0.17,0,0.73-0.03,2.13-0.35c0.52-0.12,1.1-0.18,1.72-0.18
		c1.48,0,3.65,0.49,5.58,2.84c3.12,3.73,4.71,8.41,4.71,13.9c0,4.23-1.54,7.4-4.56,9.43c-1.66,1.1-3.54,1.65-5.58,1.65
		c-1.91,0-3.52-0.44-4.8-1.31c-1.22-0.83-2.33-2.18-3.38-4.12c-1.2-2.19-2.18-3.77-2.91-4.69c-0.68-0.85-1.52-1.65-2.51-2.35
		c-2.53-1.75-5.09-2.61-7.83-2.61c-2.43,0-4.3,0.83-5.69,2.54c-1.48,1.8-2.23,4.32-2.23,7.48c0,4.63,1.2,8.93,3.56,12.77
		c3.11,4.99,7.46,7.43,13.27,7.43c2.16,0,4.34-0.36,6.47-1.08c2.05-0.69,3.64-1.57,4.72-2.61c1.57-1.47,2.87-2.14,4.14-2.14
		c1.15,0,2.83,0.38,4.24,2.2c1.01,1.31,1.53,2.88,1.53,4.67c0,2-0.59,4.21-1.75,6.58c-1.15,2.35-2.58,4.24-4.24,5.62
		c-0.93,0.75-2.39,1.28-4.75,1.74c-0.67,0.12-1.89,0.47-4,1.47C175.25,138.82,170.37,139.93,165.37,139.93z"/>
</g>
<g>
	<g>
		<path class="st1" d="M25.5,9.03h46.04c9.31,0,16.11-0.19,20.38-0.58c4.27-0.39,8.43-1.18,12.49-2.37
			c1.25-0.36,2.24-0.54,2.96-0.54c3.1,0,5.85,1.67,8.24,5.01c3.94,5.43,5.91,11.98,5.91,19.67c0,3.88-0.82,6.93-2.46,9.17
			c-1.64,2.24-3.9,3.35-6.76,3.35c-1.97,0-3.51-0.4-4.61-1.21c-1.1-0.8-2.58-2.61-4.43-5.41c-2.63-3.99-5.96-6.66-9.99-8
			s-10.64-2.01-19.84-2.01c-6.87,0-11.05,1.22-12.54,3.67c-0.78,1.31-1.24,3.07-1.39,5.28c-0.15,2.21-0.22,7.84-0.22,16.9
			c0,3.58,0.6,5.8,1.79,6.66c1.19,0.86,4.33,1.3,9.4,1.3c2.51,0,4.33-0.52,5.46-1.57c1.13-1.04,1.85-2.91,2.15-5.59
			c0.42-3.46,0.85-5.83,1.3-7.11c0.45-1.28,1.27-2.4,2.46-3.35c1.25-1.07,2.72-1.61,4.39-1.61c2.45,0,4.54,1.16,6.27,3.49
			c1.25,1.73,2.31,4.78,3.18,9.17c0.87,4.38,1.3,8.96,1.3,13.73c0,9.42-1.46,17.14-4.39,23.16c-1.61,3.28-4.06,4.92-7.34,4.92
			c-2.03,0-3.43-0.52-4.21-1.57c-0.78-1.04-1.37-3.2-1.79-6.48C78.35,80.37,74.41,77,67.42,77c-2.69,0-4.52,0.85-5.51,2.55
			c-0.99,1.7-1.48,4.84-1.48,9.43c0,2.8,0.19,6.42,0.58,10.87c0.39,4.44,0.79,7.38,1.21,8.81c0.48,1.79,1.96,3.03,4.43,3.71
			c2.48,0.69,6.61,1.03,12.4,1.03c8.96,0,15.7-1.15,20.24-3.44c4.54-2.3,8.24-6.45,11.11-12.48c1.67-3.46,3.18-5.78,4.52-6.98
			c1.34-1.19,3.09-1.79,5.24-1.79c2.51,0,4.58,1.09,6.22,3.26c1.64,2.18,2.46,4.9,2.46,8.18c0,3.58-0.93,8.05-2.78,13.41
			c-1.85,5.37-4.12,10.14-6.81,14.31c-1.37,2.03-2.51,3.38-3.4,4.07c-0.9,0.69-2.03,1.03-3.4,1.03c-1.13,0-2.78-0.18-4.93-0.54
			c-3.82-0.72-8.93-1.16-15.32-1.34H16.28c-3.05,0-5.4-0.67-7.08-2.01c-1.67-1.34-2.51-3.23-2.51-5.68c0-1.73,0.36-2.98,1.07-3.76
			s2.36-1.76,4.93-2.95c1.79-0.78,3.12-1.73,3.99-2.86c0.87-1.13,1.54-2.8,2.02-5.01c1.97-9,2.96-21.14,2.96-36.4
			c0-23.01-1.43-37.53-4.3-43.55c-0.6-1.19-1.25-2.03-1.97-2.5c-0.72-0.48-2.21-1.04-4.48-1.7c-3.4-1.01-5.11-3.28-5.11-6.8
			c0-1.91,0.57-3.61,1.7-5.1s2.63-2.47,4.48-2.95C14.31,9.3,18.82,9.03,25.5,9.03z"/>
	</g>
	<g>
		<path class="st1" d="M165.63,2.87c4.31,0,8.47,0.94,12.49,2.81c1.89,0.88,3.2,1.32,3.94,1.32c0.53,0,1.39-0.13,2.57-0.39
			c0.38-0.09,0.81-0.13,1.28-0.13c1.54,0,2.88,0.7,4.03,2.11c2.83,3.39,4.25,7.6,4.25,12.63c0,3.54-1.23,6.13-3.68,7.76
			c-1.33,0.88-2.82,1.32-4.47,1.32c-1.51,0-2.73-0.32-3.68-0.97c-0.94-0.64-1.86-1.78-2.75-3.42c-1.27-2.31-2.3-3.97-3.1-4.98
			s-1.77-1.92-2.92-2.74c-2.86-1.99-5.86-2.98-8.99-2.98c-3.04,0-5.46,1.09-7.24,3.27c-1.79,2.18-2.68,5.1-2.68,8.75
			c0,5.03,1.28,9.64,3.85,13.82c3.48,5.59,8.47,8.38,14.97,8.38c2.39,0,4.76-0.39,7.11-1.18s4.17-1.81,5.47-3.07
			c1.12-1.05,2.04-1.58,2.75-1.58c1.03,0,1.92,0.48,2.66,1.43s1.11,2.1,1.11,3.44c0,1.7-0.52,3.6-1.55,5.7
			c-1.03,2.11-2.27,3.76-3.72,4.96c-0.62,0.5-1.9,0.94-3.85,1.32c-1.12,0.2-2.61,0.75-4.47,1.62c-4.37,2.08-8.92,3.11-13.64,3.11
			c-4.93,0-9.85-1.1-14.75-3.29c-5.7-2.54-10.2-6.45-13.51-11.71c-3.25-5.12-4.87-10.47-4.87-16.06c0-6.49,2.04-12.41,6.11-17.77
			c3.54-4.65,8.16-8.2,13.86-10.66C156.55,3.8,161.03,2.87,165.63,2.87z"/>
	</g>
	<g>
		<path class="st1" d="M165.63,75.64c4.31,0,8.47,0.94,12.49,2.81c1.89,0.88,3.2,1.32,3.94,1.32c0.53,0,1.39-0.13,2.57-0.39
			c0.38-0.09,0.81-0.13,1.28-0.13c1.54,0,2.88,0.7,4.03,2.11c2.83,3.39,4.25,7.6,4.25,12.63c0,3.54-1.23,6.13-3.68,7.76
			c-1.33,0.88-2.82,1.32-4.47,1.32c-1.51,0-2.73-0.32-3.68-0.97c-0.94-0.64-1.86-1.78-2.75-3.42c-1.27-2.31-2.3-3.97-3.1-4.98
			s-1.77-1.92-2.92-2.74c-2.86-1.99-5.86-2.98-8.99-2.98c-3.04,0-5.46,1.09-7.24,3.27c-1.79,2.18-2.68,5.1-2.68,8.75
			c0,5.03,1.28,9.64,3.85,13.82c3.48,5.59,8.47,8.38,14.97,8.38c2.39,0,4.76-0.39,7.11-1.18s4.17-1.81,5.47-3.07
			c1.12-1.05,2.04-1.58,2.75-1.58c1.03,0,1.92,0.48,2.66,1.43s1.11,2.1,1.11,3.44c0,1.7-0.52,3.6-1.55,5.7
			c-1.03,2.11-2.27,3.76-3.72,4.96c-0.62,0.5-1.9,0.94-3.85,1.32c-1.12,0.2-2.61,0.75-4.47,1.62c-4.37,2.08-8.92,3.11-13.64,3.11
			c-4.93,0-9.85-1.1-14.75-3.29c-5.7-2.54-10.2-6.45-13.51-11.71c-3.25-5.12-4.87-10.47-4.87-16.06c0-6.49,2.04-12.41,6.11-17.77
			c3.54-4.65,8.16-8.2,13.86-10.66C156.55,76.58,161.03,75.64,165.63,75.64z"/>
	</g>
</g>
</svg>
